<?xml version="1.0" standalone="no"?>
<!DOCTYPE svg PUBLIC "-//W3C//DTD SVG 20010904//EN"
 "http://www.w3.org/TR/2001/REC-SVG-20010904/DTD/svg10.dtd">
<svg version="1.0" xmlns="http://www.w3.org/2000/svg"
 width="1000.000000pt" height="1000.000000pt" viewBox="0 0 1000.000000 1000.000000"
 preserveAspectRatio="xMidYMid meet">
<metadata>
Created by potrace 1.11, written by Peter Selinger 2001-2013
</metadata>
<g transform="translate(0.000000,1000.000000) scale(0.100000,-0.100000)"
fill="#000000" stroke="none">
<path d="M3308 6739 c-206 -20 -380 -69 -553 -154 -490 -243 -745 -752 -745
-1490 0 -454 92 -810 283 -1095 60 -90 198 -234 287 -300 252 -187 619 -283
1020 -267 605 25 1020 279 1255 770 234 486 234 1278 0 1784 -120 261 -346
491 -601 613 -254 123 -597 173 -946 139z m409 -454 c407 -66 646 -341 729
-840 26 -156 26 -554 0 -710 -77 -464 -282 -726 -645 -823 -86 -23 -115 -25
-276 -26 -154 0 -193 3 -269 22 -364 91 -579 355 -661 812 -23 127 -32 480
-16 621 65 562 309 870 749 944 106 18 279 18 389 0z"/>
<path d="M5370 5085 l0 -1615 236 0 235 0 -4 1113 c-4 1012 -9 1220 -32 1415
-3 29 -1 42 8 42 6 0 368 -578 802 -1285 l790 -1284 323 -1 322 0 0 1615 0
1615 -240 0 -240 0 0 -912 c0 -822 6 -1146 26 -1525 3 -68 3 -123 -2 -123 -5
1 -364 577 -799 1280 l-789 1280 -318 0 -318 0 0 -1615z"/>
</g>
</svg>
